<svg width="265" height="40" viewBox="0 0 265 40" fill="none" xmlns="http://www.w3.org/2000/svg">
<path d="M1.22637e-05 39.0601V38.9001H3.58001V9.22006H1.22637e-05V9.06006H21.02V17.2601H20.88C20.88 15.8334 20.6467 14.5134 20.18 13.3001C19.7267 12.0734 19.0067 11.0867 18.02 10.3401C17.0333 9.59339 15.76 9.22006 14.2 9.22006H7.40001V38.9001H13.8C15.6267 38.9001 17.0867 38.5201 18.18 37.7601C19.2733 36.9867 20.06 35.9334 20.54 34.6001C21.0333 33.2667 21.28 31.7534 21.28 30.0601H21.44V39.0601H1.22637e-05ZM14.08 27.9401C14.08 27.0467 13.88 26.2801 13.48 25.6401C13.0933 24.9867 12.5733 24.4867 11.92 24.1401C11.2667 23.7934 10.56 23.6201 9.80001 23.6201H5.88001V23.4601H9.80001C10.56 23.4601 11.2667 23.3067 11.92 23.0001C12.5733 22.6801 13.0933 22.2134 13.48 21.6001C13.88 20.9867 14.08 20.2334 14.08 19.3401H14.24V27.9401H14.08ZM10.34 5.24006L10.24 5.10006L14.1 0.540056C14.3533 0.23339 14.6267 0.066723 14.92 0.0400567C15.2267 0.0133904 15.5067 0.07339 15.76 0.220056C16.0267 0.35339 16.22 0.533391 16.34 0.760057C16.4733 0.973391 16.5333 1.21339 16.52 1.48006C16.52 1.74672 16.4533 1.99339 16.32 2.22006C16.2 2.44672 16.0267 2.61339 15.8 2.72006L10.34 5.24006ZM29.8566 30.1801C29.8566 28.9401 29.9366 27.7334 30.0966 26.5601C30.2566 25.3867 30.5299 24.3267 30.9166 23.3801C31.3166 22.4201 31.8566 21.6601 32.5366 21.1001C33.2299 20.5401 34.1032 20.2601 35.1566 20.2601C35.9032 20.2601 36.5432 20.4134 37.0766 20.7201C37.6099 21.0134 38.0232 21.4067 38.3166 21.9001C38.6099 22.3801 38.7566 22.9067 38.7566 23.4801C38.7566 24.1601 38.5499 24.7334 38.1366 25.2001C37.7366 25.6667 37.1699 25.9001 36.4366 25.9001C35.6899 25.9001 35.1032 25.7001 34.6766 25.3001C34.2632 24.8867 34.0566 24.3801 34.0566 23.7801C34.0566 22.9934 34.3032 22.4067 34.7966 22.0201C35.3032 21.6201 35.8432 21.4201 36.4166 21.4201C36.8566 21.4201 37.2499 21.5134 37.5966 21.7001C37.9566 21.8867 38.2366 22.1401 38.4366 22.4601C38.6366 22.7667 38.7366 23.1067 38.7366 23.4801H38.5766C38.5766 22.9334 38.4366 22.4334 38.1566 21.9801C37.8766 21.5134 37.4766 21.1401 36.9566 20.8601C36.4499 20.5801 35.8432 20.4401 35.1366 20.4401C34.1232 20.4401 33.2832 20.7201 32.6166 21.2801C31.9499 21.8267 31.4232 22.5734 31.0366 23.5201C30.6499 24.4534 30.3766 25.5001 30.2166 26.6601C30.0699 27.8201 29.9966 28.9934 29.9966 30.1801H29.8566ZM29.9966 20.6601V38.9001H32.4566V39.0601H23.9766V38.9001H26.4166V20.8201H23.9766V20.6601H29.9966ZM45.4478 13.4801C44.7945 13.4801 44.2278 13.2401 43.7478 12.7601C43.2812 12.2801 43.0478 11.7201 43.0478 11.0801C43.0478 10.4134 43.2812 9.84672 43.7478 9.38006C44.2278 8.91339 44.7945 8.68006 45.4478 8.68006C46.1145 8.68006 46.6812 8.91339 47.1478 9.38006C47.6145 9.84672 47.8478 10.4134 47.8478 11.0801C47.8478 11.7334 47.6145 12.3001 47.1478 12.7801C46.6812 13.2467 46.1145 13.4801 45.4478 13.4801ZM47.2278 20.6601V38.9001H49.6678V39.0601H41.2078V38.9001H43.6278V20.8201H41.2078V20.6601H47.2278ZM62.1731 39.4601C60.4265 39.4601 58.8665 39.0801 57.4931 38.3201C56.1198 37.5467 55.0398 36.4467 54.2531 35.0201C53.4665 33.5801 53.0731 31.8601 53.0731 29.8601C53.0731 28.1267 53.4265 26.5334 54.1331 25.0801C54.8531 23.6267 55.8998 22.4601 57.2731 21.5801C58.6598 20.7001 60.3665 20.2601 62.3931 20.2601C63.7531 20.2601 64.9265 20.5001 65.9131 20.9801C66.8998 21.4601 67.6531 22.1001 68.1731 22.9001C68.7065 23.7001 68.9731 24.5934 68.9731 25.5801C68.9731 26.3001 68.7665 26.8601 68.3531 27.2601C67.9398 27.6601 67.4265 27.8601 66.8131 27.8601C66.4798 27.8601 66.1331 27.7867 65.7731 27.6401C65.4265 27.4801 65.1331 27.2401 64.8931 26.9201C64.6531 26.5867 64.5331 26.1534 64.5331 25.6201C64.5331 24.9134 64.7598 24.3801 65.2131 24.0201C65.6665 23.6467 66.1998 23.4601 66.8131 23.4601C67.3865 23.4601 67.8798 23.6401 68.2931 24.0001C68.7198 24.3467 68.9331 24.8734 68.9331 25.5801H68.7931C68.7931 24.7534 68.6198 24.0267 68.2731 23.4001C67.9265 22.7601 67.4598 22.2267 66.8731 21.8001C66.2998 21.3601 65.6598 21.0267 64.9531 20.8001C64.2465 20.5734 63.5265 20.4601 62.7931 20.4601C61.6065 20.4601 60.6465 20.7667 59.9131 21.3801C59.1931 21.9934 58.6331 22.7867 58.2331 23.7601C57.8465 24.7201 57.5865 25.7401 57.4531 26.8201C57.3198 27.9001 57.2531 28.9134 57.2531 29.8601C57.2531 31.0067 57.3265 32.1334 57.4731 33.2401C57.6198 34.3467 57.8731 35.3534 58.2331 36.2601C58.6065 37.1534 59.1331 37.8667 59.8131 38.4001C60.4931 38.9334 61.3665 39.2001 62.4331 39.2001C63.6465 39.2001 64.6865 38.9534 65.5531 38.4601C66.4331 37.9534 67.1665 37.2667 67.7531 36.4001C68.3398 35.5201 68.8131 34.5201 69.1731 33.4001H69.3531C68.8331 35.1201 68.0131 36.5601 66.8931 37.7201C65.7731 38.8801 64.1998 39.4601 62.1731 39.4601ZM88.2066 39.4601C87.5799 39.4601 86.9866 39.3734 86.4266 39.2001C85.8666 39.0267 85.4132 38.6934 85.0666 38.2001C84.7199 37.7067 84.5466 36.9867 84.5466 36.0401V26.8801C84.5466 25.9201 84.4732 24.9601 84.3266 24.0001C84.1932 23.0267 83.8732 22.2201 83.3666 21.5801C82.8599 20.9401 82.0732 20.6201 81.0066 20.6201C80.2866 20.6201 79.5599 20.7134 78.8266 20.9001C78.1066 21.0734 77.4466 21.3267 76.8466 21.6601C76.2466 21.9801 75.7666 22.3734 75.4066 22.8401C75.0466 23.3067 74.8666 23.8334 74.8666 24.4201H74.7066C74.7066 23.7401 74.9266 23.2067 75.3666 22.8201C75.8199 22.4201 76.3132 22.2201 76.8466 22.2201C77.4199 22.2201 77.9399 22.4067 78.4066 22.7801C78.8866 23.1401 79.1266 23.6601 79.1266 24.3401C79.1266 25.1401 78.8799 25.7201 78.3866 26.0801C77.9066 26.4401 77.3932 26.6201 76.8466 26.6201C76.2332 26.6201 75.7132 26.4334 75.2866 26.0601C74.8732 25.6867 74.6666 25.1401 74.6666 24.4201C74.6666 23.7934 74.8599 23.2334 75.2466 22.7401C75.6466 22.2334 76.1866 21.8067 76.8666 21.4601C77.5466 21.1001 78.3132 20.8267 79.1666 20.6401C80.0199 20.4401 80.8999 20.3401 81.8066 20.3401C83.6466 20.3401 85.0132 20.6601 85.9066 21.3001C86.8132 21.9401 87.4066 22.7601 87.6866 23.7601C87.9799 24.7601 88.1266 25.8001 88.1266 26.8801V37.1801C88.1266 37.6467 88.2199 38.0534 88.4066 38.4001C88.6066 38.7467 88.9866 38.9201 89.5466 38.9201C89.9999 38.9201 90.4999 38.7067 91.0466 38.2801C91.5932 37.8534 92.0266 37.2801 92.3466 36.5601L92.4466 36.6801C92.0999 37.4934 91.5466 38.1601 90.7866 38.6801C90.0266 39.2001 89.1666 39.4601 88.2066 39.4601ZM78.9666 39.4601C77.2332 39.4601 75.8466 39.0201 74.8066 38.1401C73.7799 37.2467 73.2666 36.0401 73.2666 34.5201C73.2666 32.7334 74.0199 31.3601 75.5266 30.4001C77.0332 29.4401 79.2066 28.9601 82.0466 28.9601H86.4066V29.1201H82.0466C80.8732 29.1201 79.9466 29.4067 79.2666 29.9801C78.5866 30.5401 78.0999 31.2201 77.8066 32.0201C77.5132 32.8201 77.3666 33.5867 77.3666 34.3201C77.3666 34.9867 77.4466 35.6801 77.6066 36.4001C77.7799 37.1067 78.0666 37.7067 78.4666 38.2001C78.8799 38.6801 79.4332 38.9201 80.1266 38.9201C80.9132 38.9201 81.6399 38.6801 82.3066 38.2001C82.9866 37.7067 83.5266 36.9401 83.9266 35.9001C84.3399 34.8601 84.5466 33.5001 84.5466 31.8201H84.6666C84.6666 33.3401 84.4732 34.6801 84.0866 35.8401C83.6999 36.9867 83.0866 37.8801 82.2466 38.5201C81.4199 39.1467 80.3266 39.4601 78.9666 39.4601ZM117.444 39.4601L106.324 9.06006H110.144L119.364 33.9201L128.164 9.06006H128.344L117.624 39.4601H117.444ZM106.424 9.06006V38.9001H109.504V39.0601H103.344V38.9001H106.244V9.22006H103.164V9.06006H106.424ZM134.864 9.06006V9.22006H132.064V38.9001H134.864V39.0601H125.044V38.9001H128.264V9.06006H134.864ZM146.725 39.4601C144.845 39.4601 143.219 39.0201 141.845 38.1401C140.485 37.2601 139.432 36.0934 138.685 34.6401C137.939 33.1867 137.565 31.5934 137.565 29.8601C137.565 28.1267 137.939 26.5334 138.685 25.0801C139.432 23.6267 140.485 22.4601 141.845 21.5801C143.219 20.7001 144.845 20.2601 146.725 20.2601C148.605 20.2601 150.232 20.7001 151.605 21.5801C152.979 22.4601 154.032 23.6267 154.765 25.0801C155.512 26.5334 155.885 28.1267 155.885 29.8601C155.885 31.5934 155.512 33.1867 154.765 34.6401C154.032 36.0934 152.979 37.2601 151.605 38.1401C150.232 39.0201 148.605 39.4601 146.725 39.4601ZM146.725 39.3001C147.819 39.3001 148.692 38.9934 149.345 38.3801C150.012 37.7534 150.512 36.9601 150.845 36.0001C151.192 35.0267 151.419 33.9934 151.525 32.9001C151.645 31.8067 151.705 30.7934 151.705 29.8601C151.705 28.9134 151.645 27.9001 151.525 26.8201C151.419 25.7267 151.192 24.7001 150.845 23.7401C150.512 22.7667 150.012 21.9734 149.345 21.3601C148.692 20.7334 147.819 20.4201 146.725 20.4201C145.632 20.4201 144.752 20.7334 144.085 21.3601C143.432 21.9734 142.939 22.7667 142.605 23.7401C142.272 24.7001 142.045 25.7267 141.925 26.8201C141.819 27.9001 141.765 28.9134 141.765 29.8601C141.765 30.7934 141.819 31.8067 141.925 32.9001C142.045 33.9934 142.272 35.0267 142.605 36.0001C142.939 36.9601 143.432 37.7534 144.085 38.3801C144.752 38.9934 145.632 39.3001 146.725 39.3001ZM165.075 20.6601V38.9001H167.495V39.0601H159.055V38.9001H161.495V20.8201H159.055V20.6601H165.075ZM177.295 26.3001V38.9001H179.715V39.0601H171.275V38.9001H173.675V26.7601C173.675 25.6401 173.628 24.6067 173.535 23.6601C173.441 22.7134 173.221 21.9534 172.875 21.3801C172.541 20.8067 172.001 20.5201 171.255 20.5201C169.881 20.5201 168.775 20.8534 167.935 21.5201C167.108 22.1734 166.488 23.0067 166.075 24.0201C165.661 25.0201 165.388 26.0667 165.255 27.1601C165.135 28.2534 165.075 29.2467 165.075 30.1401L164.935 30.3201C164.935 29.3867 164.995 28.3467 165.115 27.2001C165.248 26.0401 165.521 24.9334 165.935 23.8801C166.361 22.8267 167.028 21.9601 167.935 21.2801C168.841 20.6001 170.068 20.2601 171.615 20.2601C173.175 20.2601 174.361 20.5201 175.175 21.0401C175.988 21.5601 176.541 22.2801 176.835 23.2001C177.141 24.1067 177.295 25.1401 177.295 26.3001ZM188.457 39.3401C187.364 39.3401 186.557 39.1001 186.037 38.6201C185.517 38.1401 185.177 37.5401 185.017 36.8201C184.87 36.0867 184.797 35.3534 184.797 34.6201V16.6601C185.397 16.6601 186.044 16.5334 186.737 16.2801C187.43 16.0267 187.977 15.7534 188.377 15.4601V36.1001C188.377 37.1001 188.497 37.7734 188.737 38.1201C188.977 38.4534 189.37 38.6201 189.917 38.6201C190.664 38.6201 191.384 38.2534 192.077 37.5201C192.784 36.7867 193.337 35.9534 193.737 35.0201L193.877 35.0801C193.397 36.3334 192.684 37.3601 191.737 38.1601C190.79 38.9467 189.697 39.3401 188.457 39.3401ZM181.897 20.8201V20.6601H192.657V20.8201H181.897ZM205.752 39.4601C204.018 39.4601 202.452 39.0801 201.052 38.3201C199.652 37.5467 198.538 36.4467 197.712 35.0201C196.885 33.5801 196.472 31.8601 196.472 29.8601C196.472 27.8601 196.872 26.1467 197.672 24.7201C198.472 23.2801 199.558 22.1801 200.932 21.4201C202.318 20.6467 203.885 20.2601 205.632 20.2601C207.605 20.2601 209.192 20.6601 210.392 21.4601C211.605 22.2467 212.485 23.2801 213.032 24.5601C213.578 25.8267 213.852 27.1867 213.852 28.6401H199.152V28.4801H209.612C209.625 27.7067 209.585 26.8601 209.492 25.9401C209.412 25.0201 209.232 24.1401 208.952 23.3001C208.685 22.4601 208.285 21.7734 207.752 21.2401C207.218 20.6934 206.512 20.4201 205.632 20.4201C204.645 20.4201 203.832 20.6934 203.192 21.2401C202.552 21.7867 202.045 22.5201 201.672 23.4401C201.298 24.3467 201.038 25.3601 200.892 26.4801C200.745 27.5867 200.672 28.7134 200.672 29.8601C200.672 30.9934 200.745 32.1201 200.892 33.2401C201.052 34.3601 201.325 35.3734 201.712 36.2801C202.098 37.1734 202.638 37.8934 203.332 38.4401C204.038 38.9734 204.932 39.2401 206.012 39.2401C208.052 39.2401 209.725 38.6734 211.032 37.5401C212.352 36.4067 213.258 35.0267 213.752 33.4001H213.932C213.412 35.1201 212.472 36.5601 211.112 37.7201C209.765 38.8801 207.978 39.4601 205.752 39.4601ZM221.346 13.4801C220.693 13.4801 220.126 13.2401 219.646 12.7601C219.18 12.2801 218.946 11.7201 218.946 11.0801C218.946 10.4134 219.18 9.84672 219.646 9.38006C220.126 8.91339 220.693 8.68006 221.346 8.68006C222.013 8.68006 222.58 8.91339 223.046 9.38006C223.513 9.84672 223.746 10.4134 223.746 11.0801C223.746 11.7334 223.513 12.3001 223.046 12.7801C222.58 13.2467 222.013 13.4801 221.346 13.4801ZM223.126 20.6601V38.9001H225.566V39.0601H217.106V38.9001H219.526V20.8201H217.106V20.6601H223.126ZM234.232 30.1801C234.232 28.9401 234.312 27.7334 234.472 26.5601C234.632 25.3867 234.905 24.3267 235.292 23.3801C235.692 22.4201 236.232 21.6601 236.912 21.1001C237.605 20.5401 238.478 20.2601 239.532 20.2601C240.278 20.2601 240.918 20.4134 241.452 20.7201C241.985 21.0134 242.398 21.4067 242.692 21.9001C242.985 22.3801 243.132 22.9067 243.132 23.4801C243.132 24.1601 242.925 24.7334 242.512 25.2001C242.112 25.6667 241.545 25.9001 240.812 25.9001C240.065 25.9001 239.478 25.7001 239.052 25.3001C238.638 24.8867 238.432 24.3801 238.432 23.7801C238.432 22.9934 238.678 22.4067 239.172 22.0201C239.678 21.6201 240.218 21.4201 240.792 21.4201C241.232 21.4201 241.625 21.5134 241.972 21.7001C242.332 21.8867 242.612 22.1401 242.812 22.4601C243.012 22.7667 243.112 23.1067 243.112 23.4801H242.952C242.952 22.9334 242.812 22.4334 242.532 21.9801C242.252 21.5134 241.852 21.1401 241.332 20.8601C240.825 20.5801 240.218 20.4401 239.512 20.4401C238.498 20.4401 237.658 20.7201 236.992 21.2801C236.325 21.8267 235.798 22.5734 235.412 23.5201C235.025 24.4534 234.752 25.5001 234.592 26.6601C234.445 27.8201 234.372 28.9934 234.372 30.1801H234.232ZM234.372 20.6601V38.9001H236.832V39.0601H228.352V38.9001H230.792V20.8201H228.352V20.6601H234.372ZM255.163 39.4601C253.283 39.4601 251.656 39.0201 250.283 38.1401C248.923 37.2601 247.869 36.0934 247.123 34.6401C246.376 33.1867 246.003 31.5934 246.003 29.8601C246.003 28.1267 246.376 26.5334 247.123 25.0801C247.869 23.6267 248.923 22.4601 250.283 21.5801C251.656 20.7001 253.283 20.2601 255.163 20.2601C257.043 20.2601 258.669 20.7001 260.043 21.5801C261.416 22.4601 262.469 23.6267 263.203 25.0801C263.949 26.5334 264.323 28.1267 264.323 29.8601C264.323 31.5934 263.949 33.1867 263.203 34.6401C262.469 36.0934 261.416 37.2601 260.043 38.1401C258.669 39.0201 257.043 39.4601 255.163 39.4601ZM255.163 39.3001C256.256 39.3001 257.129 38.9934 257.783 38.3801C258.449 37.7534 258.949 36.9601 259.283 36.0001C259.629 35.0267 259.856 33.9934 259.963 32.9001C260.083 31.8067 260.143 30.7934 260.143 29.8601C260.143 28.9134 260.083 27.9001 259.963 26.8201C259.856 25.7267 259.629 24.7001 259.283 23.7401C258.949 22.7667 258.449 21.9734 257.783 21.3601C257.129 20.7334 256.256 20.4201 255.163 20.4201C254.069 20.4201 253.189 20.7334 252.523 21.3601C251.869 21.9734 251.376 22.7667 251.043 23.7401C250.709 24.7001 250.483 25.7267 250.363 26.8201C250.256 27.9001 250.203 28.9134 250.203 29.8601C250.203 30.7934 250.256 31.8067 250.363 32.9001C250.483 33.9934 250.709 35.0267 251.043 36.0001C251.376 36.9601 251.869 37.7534 252.523 38.3801C253.189 38.9934 254.069 39.3001 255.163 39.3001Z" fill="#FC5A8F"/>
</svg>
