<svg width="265" height="40" viewBox="0 0 265 40" fill="none" xmlns="http://www.w3.org/2000/svg">
<path d="M-2.99513e-06 39.06V38.9H3.58V9.22H-2.99513e-06V9.06H21.02V17.26H20.88C20.88 15.8333 20.6467 14.5133 20.18 13.3C19.7267 12.0733 19.0067 11.0867 18.02 10.34C17.0333 9.59333 15.76 9.22 14.2 9.22H7.4V38.9H13.8C15.6267 38.9 17.0867 38.52 18.18 37.76C19.2733 36.9867 20.06 35.9333 20.54 34.6C21.0333 33.2667 21.28 31.7533 21.28 30.06H21.44V39.06H-2.99513e-06ZM14.08 27.94C14.08 27.0467 13.88 26.28 13.48 25.64C13.0933 24.9867 12.5733 24.4867 11.92 24.14C11.2667 23.7933 10.56 23.62 9.8 23.62H5.88V23.46H9.8C10.56 23.46 11.2667 23.3067 11.92 23C12.5733 22.68 13.0933 22.2133 13.48 21.6C13.88 20.9867 14.08 20.2333 14.08 19.34H14.24V27.94H14.08ZM10.34 5.24L10.24 5.1L14.1 0.539999C14.3533 0.233332 14.6267 0.0666658 14.92 0.0399995C15.2267 0.0133332 15.5067 0.0733328 15.76 0.219998C16.0267 0.353333 16.22 0.533334 16.34 0.76C16.4733 0.973334 16.5333 1.21333 16.52 1.48C16.52 1.74667 16.4533 1.99333 16.32 2.22C16.2 2.44667 16.0267 2.61333 15.8 2.72L10.34 5.24ZM29.8566 30.18C29.8566 28.94 29.9366 27.7333 30.0966 26.56C30.2566 25.3867 30.5299 24.3267 30.9166 23.38C31.3166 22.42 31.8566 21.66 32.5366 21.1C33.2299 20.54 34.1032 20.26 35.1566 20.26C35.9032 20.26 36.5432 20.4133 37.0766 20.72C37.6099 21.0133 38.0232 21.4067 38.3166 21.9C38.6099 22.38 38.7566 22.9067 38.7566 23.48C38.7566 24.16 38.5499 24.7333 38.1366 25.2C37.7366 25.6667 37.1699 25.9 36.4366 25.9C35.6899 25.9 35.1032 25.7 34.6766 25.3C34.2632 24.8867 34.0566 24.38 34.0566 23.78C34.0566 22.9933 34.3032 22.4067 34.7966 22.02C35.3032 21.62 35.8432 21.42 36.4166 21.42C36.8566 21.42 37.2499 21.5133 37.5966 21.7C37.9566 21.8867 38.2366 22.14 38.4366 22.46C38.6366 22.7667 38.7366 23.1067 38.7366 23.48H38.5766C38.5766 22.9333 38.4366 22.4333 38.1566 21.98C37.8766 21.5133 37.4766 21.14 36.9566 20.86C36.4499 20.58 35.8432 20.44 35.1366 20.44C34.1232 20.44 33.2832 20.72 32.6166 21.28C31.9499 21.8267 31.4232 22.5733 31.0366 23.52C30.6499 24.4533 30.3766 25.5 30.2166 26.66C30.0699 27.82 29.9966 28.9933 29.9966 30.18H29.8566ZM29.9966 20.66V38.9H32.4566V39.06H23.9766V38.9H26.4166V20.82H23.9766V20.66H29.9966ZM45.4478 13.48C44.7945 13.48 44.2278 13.24 43.7478 12.76C43.2811 12.28 43.0478 11.72 43.0478 11.08C43.0478 10.4133 43.2811 9.84667 43.7478 9.38C44.2278 8.91333 44.7945 8.68 45.4478 8.68C46.1145 8.68 46.6811 8.91333 47.1478 9.38C47.6145 9.84667 47.8478 10.4133 47.8478 11.08C47.8478 11.7333 47.6145 12.3 47.1478 12.78C46.6811 13.2467 46.1145 13.48 45.4478 13.48ZM47.2278 20.66V38.9H49.6678V39.06H41.2078V38.9H43.6278V20.82H41.2078V20.66H47.2278ZM62.1731 39.46C60.4265 39.46 58.8665 39.08 57.4931 38.32C56.1198 37.5467 55.0398 36.4467 54.2531 35.02C53.4665 33.58 53.0731 31.86 53.0731 29.86C53.0731 28.1267 53.4265 26.5333 54.1331 25.08C54.8531 23.6267 55.8998 22.46 57.2731 21.58C58.6598 20.7 60.3665 20.26 62.3931 20.26C63.7531 20.26 64.9265 20.5 65.9131 20.98C66.8998 21.46 67.6531 22.1 68.1731 22.9C68.7065 23.7 68.9731 24.5933 68.9731 25.58C68.9731 26.3 68.7665 26.86 68.3531 27.26C67.9398 27.66 67.4265 27.86 66.8131 27.86C66.4798 27.86 66.1331 27.7867 65.7731 27.64C65.4265 27.48 65.1331 27.24 64.8931 26.92C64.6531 26.5867 64.5331 26.1533 64.5331 25.62C64.5331 24.9133 64.7598 24.38 65.2131 24.02C65.6665 23.6467 66.1998 23.46 66.8131 23.46C67.3865 23.46 67.8798 23.64 68.2931 24C68.7198 24.3467 68.9331 24.8733 68.9331 25.58H68.7931C68.7931 24.7533 68.6198 24.0267 68.2731 23.4C67.9265 22.76 67.4598 22.2267 66.8731 21.8C66.2998 21.36 65.6598 21.0267 64.9531 20.8C64.2465 20.5733 63.5265 20.46 62.7931 20.46C61.6065 20.46 60.6465 20.7667 59.9131 21.38C59.1931 21.9933 58.6331 22.7867 58.2331 23.76C57.8465 24.72 57.5865 25.74 57.4531 26.82C57.3198 27.9 57.2531 28.9133 57.2531 29.86C57.2531 31.0067 57.3265 32.1333 57.4731 33.24C57.6198 34.3467 57.8731 35.3533 58.2331 36.26C58.6065 37.1533 59.1331 37.8667 59.8131 38.4C60.4931 38.9333 61.3665 39.2 62.4331 39.2C63.6465 39.2 64.6865 38.9533 65.5531 38.46C66.4331 37.9533 67.1665 37.2667 67.7531 36.4C68.3398 35.52 68.8131 34.52 69.1731 33.4H69.3531C68.8331 35.12 68.0131 36.56 66.8931 37.72C65.7731 38.88 64.1998 39.46 62.1731 39.46ZM88.2066 39.46C87.5799 39.46 86.9866 39.3733 86.4266 39.2C85.8666 39.0267 85.4132 38.6933 85.0666 38.2C84.7199 37.7067 84.5466 36.9867 84.5466 36.04V26.88C84.5466 25.92 84.4732 24.96 84.3266 24C84.1932 23.0267 83.8732 22.22 83.3666 21.58C82.8599 20.94 82.0732 20.62 81.0066 20.62C80.2866 20.62 79.5599 20.7133 78.8266 20.9C78.1066 21.0733 77.4466 21.3267 76.8466 21.66C76.2466 21.98 75.7666 22.3733 75.4066 22.84C75.0466 23.3067 74.8666 23.8333 74.8666 24.42H74.7066C74.7066 23.74 74.9266 23.2067 75.3666 22.82C75.8199 22.42 76.3132 22.22 76.8466 22.22C77.4199 22.22 77.9399 22.4067 78.4066 22.78C78.8866 23.14 79.1266 23.66 79.1266 24.34C79.1266 25.14 78.8799 25.72 78.3866 26.08C77.9066 26.44 77.3932 26.62 76.8466 26.62C76.2332 26.62 75.7132 26.4333 75.2866 26.06C74.8732 25.6867 74.6666 25.14 74.6666 24.42C74.6666 23.7933 74.8599 23.2333 75.2466 22.74C75.6466 22.2333 76.1866 21.8067 76.8666 21.46C77.5466 21.1 78.3132 20.8267 79.1666 20.64C80.0199 20.44 80.8999 20.34 81.8066 20.34C83.6466 20.34 85.0132 20.66 85.9066 21.3C86.8132 21.94 87.4066 22.76 87.6866 23.76C87.9799 24.76 88.1266 25.8 88.1266 26.88V37.18C88.1266 37.6467 88.2199 38.0533 88.4066 38.4C88.6066 38.7467 88.9866 38.92 89.5466 38.92C89.9999 38.92 90.4999 38.7067 91.0466 38.28C91.5932 37.8533 92.0266 37.28 92.3466 36.56L92.4466 36.68C92.0999 37.4933 91.5466 38.16 90.7866 38.68C90.0266 39.2 89.1666 39.46 88.2066 39.46ZM78.9666 39.46C77.2332 39.46 75.8466 39.02 74.8066 38.14C73.7799 37.2467 73.2666 36.04 73.2666 34.52C73.2666 32.7333 74.0199 31.36 75.5266 30.4C77.0332 29.44 79.2066 28.96 82.0466 28.96H86.4066V29.12H82.0466C80.8732 29.12 79.9466 29.4067 79.2666 29.98C78.5866 30.54 78.0999 31.22 77.8066 32.02C77.5132 32.82 77.3666 33.5867 77.3666 34.32C77.3666 34.9867 77.4466 35.68 77.6066 36.4C77.7799 37.1067 78.0666 37.7067 78.4666 38.2C78.8799 38.68 79.4332 38.92 80.1266 38.92C80.9132 38.92 81.6399 38.68 82.3066 38.2C82.9866 37.7067 83.5266 36.94 83.9266 35.9C84.3399 34.86 84.5466 33.5 84.5466 31.82H84.6666C84.6666 33.34 84.4732 34.68 84.0866 35.84C83.6999 36.9867 83.0866 37.88 82.2466 38.52C81.4199 39.1467 80.3266 39.46 78.9666 39.46ZM117.444 39.46L106.324 9.06H110.144L119.364 33.92L128.164 9.06H128.344L117.624 39.46H117.444ZM106.424 9.06V38.9H109.504V39.06H103.344V38.9H106.244V9.22H103.164V9.06H106.424ZM134.864 9.06V9.22H132.064V38.9H134.864V39.06H125.044V38.9H128.264V9.06H134.864ZM146.725 39.46C144.845 39.46 143.219 39.02 141.845 38.14C140.485 37.26 139.432 36.0933 138.685 34.64C137.939 33.1867 137.565 31.5933 137.565 29.86C137.565 28.1267 137.939 26.5333 138.685 25.08C139.432 23.6267 140.485 22.46 141.845 21.58C143.219 20.7 144.845 20.26 146.725 20.26C148.605 20.26 150.232 20.7 151.605 21.58C152.979 22.46 154.032 23.6267 154.765 25.08C155.512 26.5333 155.885 28.1267 155.885 29.86C155.885 31.5933 155.512 33.1867 154.765 34.64C154.032 36.0933 152.979 37.26 151.605 38.14C150.232 39.02 148.605 39.46 146.725 39.46ZM146.725 39.3C147.819 39.3 148.692 38.9933 149.345 38.38C150.012 37.7533 150.512 36.96 150.845 36C151.192 35.0267 151.419 33.9933 151.525 32.9C151.645 31.8067 151.705 30.7933 151.705 29.86C151.705 28.9133 151.645 27.9 151.525 26.82C151.419 25.7267 151.192 24.7 150.845 23.74C150.512 22.7667 150.012 21.9733 149.345 21.36C148.692 20.7333 147.819 20.42 146.725 20.42C145.632 20.42 144.752 20.7333 144.085 21.36C143.432 21.9733 142.939 22.7667 142.605 23.74C142.272 24.7 142.045 25.7267 141.925 26.82C141.819 27.9 141.765 28.9133 141.765 29.86C141.765 30.7933 141.819 31.8067 141.925 32.9C142.045 33.9933 142.272 35.0267 142.605 36C142.939 36.96 143.432 37.7533 144.085 38.38C144.752 38.9933 145.632 39.3 146.725 39.3ZM165.075 20.66V38.9H167.495V39.06H159.055V38.9H161.495V20.82H159.055V20.66H165.075ZM177.295 26.3V38.9H179.715V39.06H171.275V38.9H173.675V26.76C173.675 25.64 173.628 24.6067 173.535 23.66C173.441 22.7133 173.221 21.9533 172.875 21.38C172.541 20.8067 172.001 20.52 171.255 20.52C169.881 20.52 168.775 20.8533 167.935 21.52C167.108 22.1733 166.488 23.0067 166.075 24.02C165.661 25.02 165.388 26.0667 165.255 27.16C165.135 28.2533 165.075 29.2467 165.075 30.14L164.935 30.32C164.935 29.3867 164.995 28.3467 165.115 27.2C165.248 26.04 165.521 24.9333 165.935 23.88C166.361 22.8267 167.028 21.96 167.935 21.28C168.841 20.6 170.068 20.26 171.615 20.26C173.175 20.26 174.361 20.52 175.175 21.04C175.988 21.56 176.541 22.28 176.835 23.2C177.141 24.1067 177.295 25.14 177.295 26.3ZM188.457 39.34C187.364 39.34 186.557 39.1 186.037 38.62C185.517 38.14 185.177 37.54 185.017 36.82C184.87 36.0867 184.797 35.3533 184.797 34.62V16.66C185.397 16.66 186.044 16.5333 186.737 16.28C187.43 16.0267 187.977 15.7533 188.377 15.46V36.1C188.377 37.1 188.497 37.7733 188.737 38.12C188.977 38.4533 189.37 38.62 189.917 38.62C190.664 38.62 191.384 38.2533 192.077 37.52C192.784 36.7867 193.337 35.9533 193.737 35.02L193.877 35.08C193.397 36.3333 192.684 37.36 191.737 38.16C190.79 38.9467 189.697 39.34 188.457 39.34ZM181.897 20.82V20.66H192.657V20.82H181.897ZM205.752 39.46C204.018 39.46 202.452 39.08 201.052 38.32C199.652 37.5467 198.538 36.4467 197.712 35.02C196.885 33.58 196.472 31.86 196.472 29.86C196.472 27.86 196.872 26.1467 197.672 24.72C198.472 23.28 199.558 22.18 200.932 21.42C202.318 20.6467 203.885 20.26 205.632 20.26C207.605 20.26 209.192 20.66 210.392 21.46C211.605 22.2467 212.485 23.28 213.032 24.56C213.578 25.8267 213.852 27.1867 213.852 28.64H199.152V28.48H209.612C209.625 27.7067 209.585 26.86 209.492 25.94C209.412 25.02 209.232 24.14 208.952 23.3C208.685 22.46 208.285 21.7733 207.752 21.24C207.218 20.6933 206.512 20.42 205.632 20.42C204.645 20.42 203.832 20.6933 203.192 21.24C202.552 21.7867 202.045 22.52 201.672 23.44C201.298 24.3467 201.038 25.36 200.892 26.48C200.745 27.5867 200.672 28.7133 200.672 29.86C200.672 30.9933 200.745 32.12 200.892 33.24C201.052 34.36 201.325 35.3733 201.712 36.28C202.098 37.1733 202.638 37.8933 203.332 38.44C204.038 38.9733 204.932 39.24 206.012 39.24C208.052 39.24 209.725 38.6733 211.032 37.54C212.352 36.4067 213.258 35.0267 213.752 33.4H213.932C213.412 35.12 212.472 36.56 211.112 37.72C209.765 38.88 207.978 39.46 205.752 39.46ZM221.346 13.48C220.693 13.48 220.126 13.24 219.646 12.76C219.18 12.28 218.946 11.72 218.946 11.08C218.946 10.4133 219.18 9.84667 219.646 9.38C220.126 8.91333 220.693 8.68 221.346 8.68C222.013 8.68 222.58 8.91333 223.046 9.38C223.513 9.84667 223.746 10.4133 223.746 11.08C223.746 11.7333 223.513 12.3 223.046 12.78C222.58 13.2467 222.013 13.48 221.346 13.48ZM223.126 20.66V38.9H225.566V39.06H217.106V38.9H219.526V20.82H217.106V20.66H223.126ZM234.232 30.18C234.232 28.94 234.312 27.7333 234.472 26.56C234.632 25.3867 234.905 24.3267 235.292 23.38C235.692 22.42 236.232 21.66 236.912 21.1C237.605 20.54 238.478 20.26 239.532 20.26C240.278 20.26 240.918 20.4133 241.452 20.72C241.985 21.0133 242.398 21.4067 242.692 21.9C242.985 22.38 243.132 22.9067 243.132 23.48C243.132 24.16 242.925 24.7333 242.512 25.2C242.112 25.6667 241.545 25.9 240.812 25.9C240.065 25.9 239.478 25.7 239.052 25.3C238.638 24.8867 238.432 24.38 238.432 23.78C238.432 22.9933 238.678 22.4067 239.172 22.02C239.678 21.62 240.218 21.42 240.792 21.42C241.232 21.42 241.625 21.5133 241.972 21.7C242.332 21.8867 242.612 22.14 242.812 22.46C243.012 22.7667 243.112 23.1067 243.112 23.48H242.952C242.952 22.9333 242.812 22.4333 242.532 21.98C242.252 21.5133 241.852 21.14 241.332 20.86C240.825 20.58 240.218 20.44 239.512 20.44C238.498 20.44 237.658 20.72 236.992 21.28C236.325 21.8267 235.798 22.5733 235.412 23.52C235.025 24.4533 234.752 25.5 234.592 26.66C234.445 27.82 234.372 28.9933 234.372 30.18H234.232ZM234.372 20.66V38.9H236.832V39.06H228.352V38.9H230.792V20.82H228.352V20.66H234.372ZM255.163 39.46C253.283 39.46 251.656 39.02 250.283 38.14C248.923 37.26 247.869 36.0933 247.123 34.64C246.376 33.1867 246.003 31.5933 246.003 29.86C246.003 28.1267 246.376 26.5333 247.123 25.08C247.869 23.6267 248.923 22.46 250.283 21.58C251.656 20.7 253.283 20.26 255.163 20.26C257.043 20.26 258.669 20.7 260.043 21.58C261.416 22.46 262.469 23.6267 263.203 25.08C263.949 26.5333 264.323 28.1267 264.323 29.86C264.323 31.5933 263.949 33.1867 263.203 34.64C262.469 36.0933 261.416 37.26 260.043 38.14C258.669 39.02 257.043 39.46 255.163 39.46ZM255.163 39.3C256.256 39.3 257.129 38.9933 257.783 38.38C258.449 37.7533 258.949 36.96 259.283 36C259.629 35.0267 259.856 33.9933 259.963 32.9C260.083 31.8067 260.143 30.7933 260.143 29.86C260.143 28.9133 260.083 27.9 259.963 26.82C259.856 25.7267 259.629 24.7 259.283 23.74C258.949 22.7667 258.449 21.9733 257.783 21.36C257.129 20.7333 256.256 20.42 255.163 20.42C254.069 20.42 253.189 20.7333 252.523 21.36C251.869 21.9733 251.376 22.7667 251.043 23.74C250.709 24.7 250.483 25.7267 250.363 26.82C250.256 27.9 250.203 28.9133 250.203 29.86C250.203 30.7933 250.256 31.8067 250.363 32.9C250.483 33.9933 250.709 35.0267 251.043 36C251.376 36.96 251.869 37.7533 252.523 38.38C253.189 38.9933 254.069 39.3 255.163 39.3Z" fill="white"/>
</svg>
